<?xml version="1.0" encoding="utf-8"?>
<!-- Generator: Adobe Illustrator 28.2.0, SVG Export Plug-In . SVG Version: 6.00 Build 0)  -->
<svg version="1.1" id="Capa_1" xmlns="http://www.w3.org/2000/svg" xmlns:xlink="http://www.w3.org/1999/xlink" x="0px" y="0px"
	 viewBox="0 0 800 800" style="enable-background:new 0 0 800 800;" xml:space="preserve">
<g>
	<path d="M612.9,0c-6.5,0-11.7,5.3-11.7,11.7v187.9c0,7.3-6,13.3-13.3,13.3c-7.3,0-13.3-6-13.3-13.3V11.7c0-6.5-5.3-11.7-11.7-11.7
		s-11.7,5.3-11.7,11.7v187.9c0,7.3-6,13.3-13.3,13.3c-7.3,0-13.3-6-13.3-13.3V11.7c0-6.5-5.3-11.7-11.7-11.7
		C506.2,0,501,5.3,501,11.7v187.9c0,7.3-6,13.3-13.3,13.3c-7.3,0-13.3-6-13.3-13.3V11.7c0-6.5-5.3-11.7-11.7-11.7
		c-6.5,0-11.7,5.3-11.7,11.7v250.5c0,20.3,16.5,36.8,36.8,36.8c7.3,0,13.3,6,13.3,13.3v114.9c-21.5,5.3-37.6,24.7-37.6,47.9v250.5
		c0,41,33.4,74.4,74.4,74.4c41,0,74.4-33.4,74.4-74.4V475.1c0-23.1-16-42.6-37.6-47.9V312.3c0-7.3,6-13.3,13.3-13.3
		c20.3,0,36.8-16.5,36.8-36.8V11.7C624.7,5.3,619.4,0,612.9,0z M588.6,475.1v250.5c0,28.1-22.8,50.9-50.9,50.9
		c-28.1,0-50.9-22.8-50.9-50.9V475.1c0-14.2,11.6-25.8,25.8-25.8h50.1C577.1,449.3,588.6,460.9,588.6,475.1z M587.9,275.5
		c-20.3,0-36.8,16.5-36.8,36.8v113.5h-26.6V312.3c0-20.3-16.5-36.8-36.8-36.8c-7.3,0-13.3-6-13.3-13.3v-28.3
		c4.1,1.6,8.6,2.5,13.3,2.5c9.7,0,18.5-3.8,25-9.9c6.6,6.1,15.4,9.9,25,9.9c9.7,0,18.5-3.8,25-9.9c6.6,6.1,15.4,9.9,25,9.9
		c4.7,0,9.2-0.9,13.3-2.5v28.3C601.2,269.6,595.2,275.5,587.9,275.5z"/>
	<path d="M287.3,0c-32.1,0-60.8,18.2-80.9,51.2c-20.3,33.4-31.1,80.4-31.1,135.8c0,40.2,21.8,77.4,56.8,97.3
		c11.3,6.4,18.4,19,18.4,32.7v110.2c-21.5,5.3-37.6,24.7-37.6,47.9v250.5c0,41,33.4,74.4,74.4,74.4s74.4-33.4,74.4-74.4V475.1
		c0-23.1-16-42.6-37.6-47.9V317.1c0-13.7,7-26.3,18.4-32.7c35-19.9,56.8-57.1,56.8-97.3c0-55.5-10.7-102.4-31.1-135.8
		C348.1,18.2,319.3,0,287.3,0z M338.2,475.1v250.5c0,28.1-22.8,50.9-50.9,50.9c-28.1,0-50.9-22.8-50.9-50.9V475.1
		c0-14.2,11.6-25.8,25.8-25.8h50.1C326.6,449.3,338.2,460.9,338.2,475.1z M330.9,263.9c-18.7,10.6-30.3,30.9-30.3,53.1v108.8H274
		V317.1c0-22.2-11.6-42.5-30.3-53.1c-27.7-15.7-44.9-45.1-44.9-76.9c0-51.2,9.6-93.9,27.6-123.6c15.9-26.1,36.9-40,60.8-40
		s44.9,13.8,60.8,40c18.1,29.7,27.6,72.5,27.6,123.6C375.7,218.8,358.5,248.3,330.9,263.9z"/>
</g>
</svg>
